<svg width="40" height="40" viewBox="0 0 40 40" fill="none" xmlns="http://www.w3.org/2000/svg">
<path d="M0 20C0 8.95431 8.95431 0 20 0H40V20C40 31.0457 31.0457 40 20 40C8.95431 40 0 31.0457 0 20Z" fill="#8643DC"/>
<path d="M16 10C16 4.47715 20.4772 0 26 0H40V13C40 18.5228 35.5228 23 30 23H16V10Z" fill="#FF59C1"/>
<path d="M18.36 31.36C16.94 31.36 15.63 31.1 14.43 30.58C13.25 30.04 12.28 29.28 11.52 28.3L14.22 25.06C14.8 25.82 15.41 26.4 16.05 26.8C16.69 27.18 17.38 27.37 18.12 27.37C20.1 27.37 21.09 26.21 21.09 23.89V13.9H13.71V10H25.92V23.62C25.92 26.22 25.28 28.16 24 29.44C22.72 30.72 20.84 31.36 18.36 31.36Z" fill="white"/>
</svg>
