<svg width="71" height="52" viewBox="0 0 71 52" fill="none" xmlns="http://www.w3.org/2000/svg">
<g filter="url(#filter0_d_1_167)">
<path d="M13.1 44C11.7 44 10.3 43.2 9.10001 42.5C7.20001 41.5 6 40.9 5 41.5L4 40C6 38.7 8.09999 39.9 9.89999 40.9C11.8 41.9 13 42.5 14 41.9C15 41.2 15 39.9 14.7 37.8C14.5 35.7 14.3 33.3 16.2 32C18.2 30.7 20.3 31.9 22.1 32.9C24 33.9 25.2 34.5 26.2 33.9C27.2 33.2 27.2 31.9 26.9 29.8C26.7 27.7 26.5 25.3 28.4 24C30.4 22.7 32.5 23.9 34.3 24.9C36.2 25.9 37.4 26.5 38.4 25.9C39.4 25.2 39.4 23.9 39.1 21.8C38.9 19.7 38.7 17.3 40.6 16C42.6 14.7 44.7 15.9 46.5 16.9C48.4 17.9 49.6 18.5 50.6 17.9C51.6 17.2 51.6 15.9 51.3 13.8C51.1 11.7 50.9 9.3 52.8 8C54.8 6.7 56.9 7.89999 58.7 8.89999C60.6 9.89999 61.8 10.5 62.8 9.89999C63.8 9.19999 63.8 7.90002 63.6 5.80002C63.4 3.70002 63.2 1.3 65.1 0L66.1 1.5C65.1 2.2 65.1 3.50001 65.3 5.60001C65.5 7.70001 65.7 10.1 63.8 11.4C61.8 12.7 59.7 11.5 57.9 10.5C56 9.5 54.8 8.9 53.8 9.5C52.8 10.2 52.8 11.5 53.1 13.6C53.3 15.7 53.5 18.1 51.6 19.4C49.6 20.7 47.5 19.5 45.7 18.5C43.8 17.5 42.6 16.9 41.6 17.5C40.6 18.2 40.6 19.5 40.9 21.6C41.1 23.7 41.3 26.1 39.4 27.4C37.4 28.7 35.3 27.5 33.5 26.5C31.6 25.5 30.4 24.9 29.4 25.5C28.4 26.2 28.4 27.5 28.7 29.6C28.9 31.7 29.1 34.1 27.2 35.4C25.2 36.7 23.1 35.5 21.3 34.5C19.4 33.5 18.2 32.9 17.2 33.5C16.2 34.2 16.2 35.5 16.5 37.6C16.7 39.7 16.9 42.1 15 43.4C14.3 43.8 13.7 44 13.1 44Z" fill="white"/>
</g>
<defs>
<filter id="filter0_d_1_167" x="0" y="0" width="70.1" height="52" filterUnits="userSpaceOnUse" color-interpolation-filters="sRGB">
<feFlood flood-opacity="0" result="BackgroundImageFix"/>
<feColorMatrix in="SourceAlpha" type="matrix" values="0 0 0 0 0 0 0 0 0 0 0 0 0 0 0 0 0 0 127 0" result="hardAlpha"/>
<feOffset dy="4"/>
<feGaussianBlur stdDeviation="2"/>
<feComposite in2="hardAlpha" operator="out"/>
<feColorMatrix type="matrix" values="0 0 0 0 0 0 0 0 0 0 0 0 0 0 0 0 0 0 0.25 0"/>
<feBlend mode="normal" in2="BackgroundImageFix" result="effect1_dropShadow_1_167"/>
<feBlend mode="normal" in="SourceGraphic" in2="effect1_dropShadow_1_167" result="shape"/>
</filter>
</defs>
</svg>
